# Blender 3.6.4
# www.blender.org
mtllib hazard_ladder_solid.mtl
o ladder.013
v -0.025000 -0.062500 0.000000
v -0.025000 0.062500 0.000000
v -0.025000 -0.062500 -0.050000
v -0.025000 0.062500 -0.050000
v 0.025000 -0.062500 0.000000
v 0.025000 0.062500 0.000000
v 0.025000 -0.062500 -0.050000
v 0.025000 0.062500 -0.050000
v -0.025000 -0.041667 0.000000
v -0.025000 -0.020833 0.000000
v -0.025000 0.000000 0.000000
v -0.025000 0.020833 0.000000
v -0.025000 0.041667 0.000000
v -0.025000 0.041667 -0.050000
v -0.025000 0.020833 -0.050000
v -0.025000 -0.000000 -0.050000
v -0.025000 -0.020833 -0.050000
v -0.025000 -0.041667 -0.050000
v 0.025000 0.041667 -0.050000
v 0.025000 0.020833 -0.050000
v 0.025000 -0.000000 -0.050000
v 0.025000 -0.020833 -0.050000
v 0.025000 -0.041667 -0.050000
v 0.025000 0.041667 0.000000
v 0.025000 0.020833 0.000000
v 0.025000 -0.000000 0.000000
v 0.025000 -0.020833 0.000000
v 0.025000 -0.041667 0.000000
v 0.018750 -0.062500 -0.050000
v -0.018750 -0.062500 -0.050000
v -0.018750 0.062500 -0.050000
v 0.018750 0.062500 -0.050000
v -0.018750 -0.062500 0.000000
v 0.018750 -0.062500 0.000000
v 0.018750 0.062500 0.000000
v -0.018750 0.062500 0.000000
v 0.018750 -0.041667 0.000000
v -0.018750 -0.041667 0.000000
v 0.018750 -0.020833 0.000000
v -0.018750 -0.020833 0.000000
v 0.018750 -0.000000 0.000000
v -0.018750 0.000000 0.000000
v 0.018750 0.020833 0.000000
v -0.018750 0.020833 0.000000
v 0.018750 0.041667 0.000000
v -0.018750 0.041667 0.000000
v -0.018750 -0.041667 -0.050000
v 0.018750 -0.041667 -0.050000
v -0.018750 -0.020833 -0.050000
v 0.018750 -0.020833 -0.050000
v -0.018750 -0.000000 -0.050000
v 0.018750 -0.000000 -0.050000
v -0.018750 0.020833 -0.050000
v 0.018750 0.020833 -0.050000
v -0.018750 0.041667 -0.050000
v 0.018750 0.041667 -0.050000
v -0.025000 -0.058081 -0.003536
v -0.025000 0.058081 -0.003536
v -0.025000 -0.058081 -0.046464
v -0.025000 0.058081 -0.046464
v 0.025000 -0.058081 -0.003536
v 0.025000 0.058081 -0.003536
v 0.025000 -0.058081 -0.046464
v 0.025000 0.058081 -0.046464
v -0.025000 -0.045274 -0.004472
v -0.025000 -0.017226 -0.004472
v -0.025000 -0.003607 -0.004472
v -0.025000 0.017226 -0.004472
v -0.025000 0.045274 -0.004472
v -0.025000 0.045274 -0.045528
v -0.025000 0.017226 -0.045528
v -0.025000 -0.003607 -0.045528
v -0.025000 -0.017226 -0.045528
v -0.025000 -0.045274 -0.045528
v 0.025000 0.045274 -0.045528
v 0.025000 0.017226 -0.045528
v 0.025000 -0.003607 -0.045528
v 0.025000 -0.017226 -0.045528
v 0.025000 -0.045274 -0.045528
v 0.025000 0.045274 -0.004472
v 0.025000 0.017226 -0.004472
v 0.025000 -0.003607 -0.004472
v 0.025000 -0.017226 -0.004472
v 0.025000 -0.045274 -0.004472
v 0.018750 -0.058081 -0.046464
v -0.018750 -0.058081 -0.046464
v -0.018750 0.058081 -0.046464
v 0.018750 0.058081 -0.046464
v -0.018750 -0.058081 -0.003536
v 0.018750 -0.058081 -0.003536
v 0.018750 0.058081 -0.003536
v -0.018750 0.058081 -0.003536
v 0.018750 -0.045274 -0.003536
v -0.018750 -0.045274 -0.003536
v 0.018750 -0.017226 -0.003536
v -0.018750 -0.017226 -0.003536
v 0.018750 -0.003607 -0.003536
v -0.018750 -0.003607 -0.003536
v 0.018750 0.017226 -0.003536
v -0.018750 0.017226 -0.003536
v 0.018750 0.045274 -0.003536
v -0.018750 0.045274 -0.003536
v -0.018750 -0.045274 -0.046464
v 0.018750 -0.045274 -0.046464
v -0.018750 -0.017226 -0.046464
v 0.018750 -0.017226 -0.046464
v -0.018750 -0.003607 -0.046464
v 0.018750 -0.003607 -0.046464
v -0.018750 0.017226 -0.046464
v 0.018750 0.017226 -0.046464
v -0.018750 0.045274 -0.046464
v 0.018750 0.045274 -0.046464
vn -0.0000 -0.0000 -1.0000
vn -0.0000 -0.0000 1.0000
vn -0.0000 -1.0000 -0.0000
vn -0.0000 1.0000 -0.0000
vn -0.0747 0.0364 0.9965
vn 0.0747 0.0364 -0.9965
vn 0.0747 -0.0364 -0.9965
vn 0.1482 -0.0000 -0.9890
vn -0.0747 -0.0364 0.9965
vn -0.1482 -0.0000 0.9890
vn 0.1482 -0.0000 0.9890
vn 0.0747 -0.0364 0.9965
vn -0.1482 -0.0000 -0.9890
vn -0.0747 -0.0364 -0.9965
vn -0.0747 0.0364 -0.9965
vn 0.0747 0.0364 0.9965
vn -1.0000 -0.0000 -0.0000
vn 1.0000 -0.0000 -0.0000
vn -0.0000 -0.7000 0.7142
vn -0.0000 0.7000 0.7142
vn -0.0000 0.7000 -0.7142
vn -0.0000 -0.7000 -0.7142
vt 0.583333 0.437500
vt 0.625000 0.437500
vt 0.625000 0.500000
vt 0.583333 0.500000
vt 0.583333 0.937500
vt 0.625000 0.937500
vt 0.625000 1.000000
vt 0.583333 1.000000
vt 0.312500 0.500000
vt 0.375000 0.500000
vt 0.375000 0.750000
vt 0.312500 0.750000
vt 0.812500 0.500000
vt 0.875000 0.500000
vt 0.875000 0.750000
vt 0.812500 0.750000
vt 0.375000 0.937500
vt 0.416667 0.937500
vt 0.416667 1.000000
vt 0.375000 1.000000
vt 0.458333 0.937500
vt 0.458333 1.000000
vt 0.500000 0.937500
vt 0.500000 1.000000
vt 0.541667 0.937500
vt 0.541667 1.000000
vt 0.375000 0.437500
vt 0.416667 0.437500
vt 0.416667 0.500000
vt 0.458333 0.437500
vt 0.458333 0.500000
vt 0.500000 0.437500
vt 0.500000 0.500000
vt 0.541667 0.437500
vt 0.541667 0.500000
vt 0.541667 0.250000
vt 0.583333 0.250000
vt 0.583333 0.312500
vt 0.541667 0.312500
vt 0.500000 0.250000
vt 0.500000 0.312500
vt 0.458333 0.250000
vt 0.458333 0.312500
vt 0.416667 0.250000
vt 0.416667 0.312500
vt 0.375000 0.250000
vt 0.375000 0.312500
vt 0.541667 0.750000
vt 0.583333 0.750000
vt 0.583333 0.812500
vt 0.541667 0.812500
vt 0.500000 0.750000
vt 0.500000 0.812500
vt 0.458333 0.750000
vt 0.458333 0.812500
vt 0.416667 0.750000
vt 0.416667 0.812500
vt 0.375000 0.812500
vt 0.687500 0.500000
vt 0.687500 0.750000
vt 0.625000 0.750000
vt 0.125000 0.500000
vt 0.187500 0.500000
vt 0.187500 0.750000
vt 0.125000 0.750000
vt 0.625000 0.812500
vt 0.458333 0.000000
vt 0.625000 0.250000
vt 0.625000 0.312500
vt 0.583333 0.000000
s 0
f 56/1/1 32/2/1 8/3/1 19/4/1
f 46/5/2 36/6/2 2/7/2 13/8/2
f 29/9/3 7/10/3 5/11/3 34/12/3
f 31/13/4 4/14/4 2/15/4 36/16/4
f 33/17/2 38/18/2 9/19/2 1/20/2
f 38/18/2 40/21/2 10/22/2 9/19/2
f 40/21/2 42/23/2 11/24/2 10/22/2
f 42/23/2 44/25/2 12/26/2 11/24/2
f 44/25/2 46/5/2 13/8/2 12/26/2
f 29/27/1 48/28/1 23/29/1 7/10/1
f 48/28/1 50/30/1 22/31/1 23/29/1
f 50/30/1 52/32/1 21/33/1 22/31/1
f 52/32/1 54/34/1 20/35/1 21/33/1
f 54/34/1 56/1/1 19/4/1 20/35/1
f 15/36/1 14/37/1 55/38/1 53/39/1
f 16/40/1 15/36/1 53/39/1 51/41/1
f 17/42/1 16/40/1 51/41/1 49/43/1
f 18/44/1 17/42/1 49/43/1 47/45/1
f 3/46/1 18/44/1 47/45/1 30/47/1
f 25/48/2 24/49/2 45/50/2 43/51/2
f 26/52/2 25/48/2 43/51/2 41/53/2
f 27/54/2 26/52/2 41/53/2 39/55/2
f 28/56/2 27/54/2 39/55/2 37/57/2
f 5/11/2 28/56/2 37/57/2 34/58/2
f 8/3/4 32/59/4 35/60/4 6/61/4
f 3/62/3 30/63/3 33/64/3 1/65/3
f 24/49/2 6/61/2 35/66/2 45/50/2
f 10/67/3 17/42/3 49/43/3 50/30/3 22/31/3 27/54/3 39/55/3 40/21/3
f 14/37/1 4/68/1 31/69/1 55/38/1
f 11/24/4 42/23/4 41/53/4 26/52/4 21/33/4 52/32/4 51/41/4 16/40/4
f 55/38/3 56/1/3 19/4/3 24/49/3 45/50/3 46/5/3 13/70/3 14/37/3
f 12/26/4 44/25/4 43/51/4 25/48/4 20/35/4 54/34/4 53/39/4 15/36/4
f 23/29/4 48/28/4 47/45/4 18/44/4 9/19/4 38/18/4 37/57/4 28/56/4
f 112/1/5 75/4/5 64/3/5 88/2/5
f 102/5/6 69/8/6 58/7/6 92/6/6
f 85/9/4 90/12/4 61/11/4 63/10/4
f 87/13/3 92/16/3 58/15/3 60/14/3
f 89/17/7 57/20/7 65/19/7 94/18/7
f 94/18/8 65/19/8 66/22/8 96/21/8
f 96/21/8 66/22/8 67/24/8 98/23/8
f 98/23/8 67/24/8 68/26/8 100/25/8
f 100/25/8 68/26/8 69/8/8 102/5/8
f 85/27/9 63/10/9 79/29/9 104/28/9
f 104/28/10 79/29/10 78/31/10 106/30/10
f 106/30/10 78/31/10 77/33/10 108/32/10
f 108/32/10 77/33/10 76/35/10 110/34/10
f 110/34/10 76/35/10 75/4/10 112/1/10
f 71/36/11 109/39/11 111/38/11 70/37/11
f 72/40/11 107/41/11 109/39/11 71/36/11
f 73/42/11 105/43/11 107/41/11 72/40/11
f 74/44/11 103/45/11 105/43/11 73/42/11
f 59/46/12 86/47/12 103/45/12 74/44/12
f 81/48/13 99/51/13 101/50/13 80/49/13
f 82/52/13 97/53/13 99/51/13 81/48/13
f 83/54/13 95/55/13 97/53/13 82/52/13
f 84/56/13 93/57/13 95/55/13 83/54/13
f 61/11/14 90/58/14 93/57/14 84/56/14
f 64/3/3 62/61/3 91/60/3 88/59/3
f 59/62/4 57/65/4 89/64/4 86/63/4
f 80/49/15 101/50/15 91/66/15 62/61/15
f 66/67/4 96/21/4 95/55/4 83/54/4 78/31/4 106/30/4 105/43/4 73/42/4
f 70/37/16 111/38/16 87/69/16 60/68/16
f 67/24/3 72/40/3 107/41/3 108/32/3 77/33/3 82/52/3 97/53/3 98/23/3
f 111/38/4 70/37/4 69/70/4 102/5/4 101/50/4 80/49/4 75/4/4 112/1/4
f 68/26/3 71/36/3 109/39/3 110/34/3 76/35/3 81/48/3 99/51/3 100/25/3
f 79/29/3 84/56/3 93/57/3 94/18/3 65/19/3 74/44/3 103/45/3 104/28/3
f 3/62/17 1/65/17 57/65/17 59/62/17
f 13/8/17 2/7/17 58/7/17 69/8/17
f 2/15/17 4/14/17 60/14/17 58/15/17
f 18/44/17 3/46/17 59/46/17 74/44/17
f 7/10/18 23/29/18 79/29/18 63/10/18
f 5/11/18 7/10/18 63/10/18 61/11/18
f 8/3/18 6/61/18 62/61/18 64/3/18
f 28/56/18 5/11/18 61/11/18 84/56/18
f 1/20/17 9/19/17 65/19/17 57/20/17
f 9/19/17 10/22/17 66/22/17 65/19/17
f 10/22/17 11/24/17 67/24/17 66/22/17
f 11/24/17 12/26/17 68/26/17 67/24/17
f 12/26/17 13/8/17 69/8/17 68/26/17
f 4/68/17 14/37/17 70/37/17 60/68/17
f 14/37/17 15/36/17 71/36/17 70/37/17
f 15/36/17 16/40/17 72/40/17 71/36/17
f 16/40/17 17/42/17 73/42/17 72/40/17
f 17/42/17 18/44/17 74/44/17 73/42/17
f 19/4/18 8/3/18 64/3/18 75/4/18
f 20/35/18 19/4/18 75/4/18 76/35/18
f 21/33/18 20/35/18 76/35/18 77/33/18
f 22/31/18 21/33/18 77/33/18 78/31/18
f 23/29/18 22/31/18 78/31/18 79/29/18
f 6/61/18 24/49/18 80/49/18 62/61/18
f 24/49/18 25/48/18 81/48/18 80/49/18
f 25/48/18 26/52/18 82/52/18 81/48/18
f 26/52/18 27/54/18 83/54/18 82/52/18
f 27/54/18 28/56/18 84/56/18 83/54/18
f 23/29/18 28/56/18 84/56/18 79/29/18
f 27/54/18 22/31/18 78/31/18 83/54/18
f 21/33/18 26/52/18 82/52/18 77/33/18
f 20/35/18 25/48/18 81/48/18 76/35/18
f 24/49/18 19/4/18 75/4/18 80/49/18
f 9/19/17 18/44/17 74/44/17 65/19/17
f 17/42/17 10/67/17 66/67/17 73/42/17
f 11/24/17 16/40/17 72/40/17 67/24/17
f 12/26/17 15/36/17 71/36/17 68/26/17
f 14/37/17 13/70/17 69/70/17 70/37/17
f 37/57/19 38/18/19 94/18/19 93/57/19
f 40/21/20 39/55/20 95/55/20 96/21/20
f 41/53/19 42/23/19 98/23/19 97/53/19
f 43/51/19 44/25/19 100/25/19 99/51/19
f 46/5/20 45/50/20 101/50/20 102/5/20
f 50/30/21 49/43/21 105/43/21 106/30/21
f 51/41/22 52/32/22 108/32/22 107/41/22
f 53/39/22 54/34/22 110/34/22 109/39/22
f 56/1/21 55/38/21 111/38/21 112/1/21
f 53/39/18 55/38/18 111/38/18 109/39/18
f 56/1/17 54/34/17 110/34/17 112/1/17
f 51/41/18 53/39/18 109/39/18 107/41/18
f 54/34/17 52/32/17 108/32/17 110/34/17
f 49/43/18 51/41/18 107/41/18 105/43/18
f 52/32/17 50/30/17 106/30/17 108/32/17
f 47/45/18 49/43/18 105/43/18 103/45/18
f 50/30/17 48/28/17 104/28/17 106/30/17
f 30/47/18 47/45/18 103/45/18 86/47/18
f 48/28/17 29/27/17 85/27/17 104/28/17
f 43/51/17 45/50/17 101/50/17 99/51/17
f 46/5/18 44/25/18 100/25/18 102/5/18
f 41/53/17 43/51/17 99/51/17 97/53/17
f 44/25/18 42/23/18 98/23/18 100/25/18
f 39/55/17 41/53/17 97/53/17 95/55/17
f 47/45/22 48/28/22 104/28/22 103/45/22
f 42/23/18 40/21/18 96/21/18 98/23/18
f 37/57/17 39/55/17 95/55/17 93/57/17
f 40/21/18 38/18/18 94/18/18 96/21/18
f 34/58/17 37/57/17 93/57/17 90/58/17
f 38/18/18 33/17/18 89/17/18 94/18/18
f 35/60/17 32/59/17 88/59/17 91/60/17
f 31/13/18 36/16/18 92/16/18 87/13/18
f 33/64/18 30/63/18 86/63/18 89/64/18
f 29/9/17 34/12/17 90/12/17 85/9/17
f 45/50/17 35/66/17 91/66/17 101/50/17
f 36/6/18 46/5/18 102/5/18 92/6/18
f 55/38/18 31/69/18 87/69/18 111/38/18
f 32/2/17 56/1/17 112/1/17 88/2/17
