# Blender 3.6.4
# www.blender.org
mtllib hazard_gear.mtl
o Torus.003
v 0.210938 -0.000000 0.040595
v 0.123047 -0.000000 0.040595
v 0.123047 0.000000 -0.040595
v 0.210938 0.000000 -0.040595
v 0.182677 0.105469 0.040595
v 0.106562 0.061523 0.040595
v 0.106562 0.061523 -0.040595
v 0.182677 0.105469 -0.040595
v 0.105469 0.182677 0.040595
v 0.061523 0.106562 0.040595
v 0.061523 0.106562 -0.040595
v 0.105469 0.182677 -0.040595
v 0.000000 0.210938 0.040595
v 0.000000 0.123047 0.040595
v 0.000000 0.123047 -0.040595
v 0.000000 0.210938 -0.040595
v -0.105469 0.182677 0.040595
v -0.061523 0.106562 0.040595
v -0.061523 0.106562 -0.040595
v -0.105469 0.182677 -0.040595
v -0.182677 0.105469 0.040595
v -0.106562 0.061523 0.040595
v -0.106562 0.061523 -0.040595
v -0.182677 0.105469 -0.040595
v -0.210938 0.000000 0.040595
v -0.123047 0.000000 0.040595
v -0.123047 0.000000 -0.040595
v -0.210938 0.000000 -0.040595
v -0.182677 -0.105469 0.040595
v -0.106562 -0.061523 0.040595
v -0.106562 -0.061523 -0.040595
v -0.182677 -0.105469 -0.040595
v -0.105469 -0.182677 0.040595
v -0.061523 -0.106562 0.040595
v -0.061523 -0.106562 -0.040595
v -0.105469 -0.182677 -0.040595
v 0.000000 -0.210938 0.040595
v 0.000000 -0.123047 0.040595
v 0.000000 -0.123047 -0.040595
v 0.000000 -0.210938 -0.040595
v 0.105469 -0.182677 0.040595
v 0.061523 -0.106562 0.040595
v 0.061523 -0.106562 -0.040595
v 0.105469 -0.182677 -0.040595
v 0.182677 -0.105469 0.040595
v 0.106562 -0.061523 0.040595
v 0.106562 -0.061523 -0.040595
v 0.182677 -0.105469 -0.040595
v 0.311107 0.019775 0.045669
v 0.311107 0.019775 -0.045669
v -0.279315 -0.138428 0.045669
v -0.279315 -0.138428 -0.045669
v 0.279315 0.138428 0.045669
v 0.279315 0.138428 -0.045669
v -0.138428 -0.279315 0.045669
v -0.138428 -0.279315 -0.045669
v -0.172680 0.259539 -0.045669
v -0.259539 0.172680 -0.045669
v 0.138428 0.279315 0.045669
v 0.138428 0.279315 -0.045669
v -0.019775 -0.311107 0.045669
v -0.019775 -0.311107 -0.045669
v 0.019775 0.311107 0.045669
v 0.019775 0.311107 -0.045669
v -0.172680 0.259539 0.045669
v -0.259539 0.172680 0.045669
v -0.311107 -0.019775 0.045669
v -0.311107 -0.019775 -0.045669
v 0.172680 -0.259539 0.045669
v 0.259539 -0.172680 0.045669
v 0.172680 -0.259539 -0.045669
v 0.259539 -0.172680 -0.045669
vn 0.7071 0.7071 -0.0000
vn -0.0000 -0.0000 1.0000
vn -0.7071 -0.7071 -0.0000
vn -0.0000 -0.0000 -1.0000
vn 0.0129 0.0481 -0.9988
vn -0.2588 -0.9659 -0.0000
vn -0.2588 0.9659 -0.0000
vn 0.2588 -0.9659 -0.0000
vn 0.3228 -0.9465 -0.0000
vn 0.7071 -0.7071 -0.0000
vn -0.9659 0.2588 -0.0000
vn 0.9659 -0.2588 -0.0000
vn 0.0481 0.0129 -0.9988
vn 0.9659 0.2588 -0.0000
vn -0.9811 0.1937 -0.0000
vn 0.2588 0.9659 -0.0000
vn -0.7528 -0.6583 -0.0000
vn -0.7071 0.7071 -0.0000
vn 0.9811 -0.1937 -0.0000
vn -0.9659 -0.2588 -0.0000
vn -0.1937 0.9811 -0.0000
vn -0.3228 0.9465 -0.0000
vn -0.0352 0.0352 -0.9988
vn 0.7528 0.6583 -0.0000
vn -0.0481 -0.0129 0.9988
vn -0.9465 0.3228 -0.0000
vn -0.0129 -0.0481 0.9988
vn 0.0352 -0.0352 0.9988
vn 0.6583 0.7528 -0.0000
vn 0.0481 0.0129 0.9988
vn 0.1937 -0.9811 -0.0000
vn 0.0129 0.0481 0.9988
vn 0.0352 -0.0352 -0.9988
vn -0.0352 0.0352 0.9988
vn -0.0481 -0.0129 -0.9988
vn 0.9465 -0.3228 -0.0000
vn -0.6583 -0.7528 -0.0000
vn -0.0129 -0.0481 -0.9988
vt 0.583333 0.333333
vt 0.666667 0.333333
vt 0.666667 0.666667
vt 0.583333 0.666667
vt 0.500000 0.666667
vt 0.583333 0.833333
vt 0.500000 0.833333
vt 0.666667 0.833333
vt 0.666667 0.166667
vt 0.583333 0.166667
vt 0.500000 0.166667
vt 0.500000 0.333333
vt 0.166667 0.333333
vt 0.250000 0.333333
vt 0.750000 0.833333
vt 0.750000 0.166667
vt 0.750000 0.333333
vt 0.833333 0.333333
vt 0.833333 0.666667
vt 0.750000 0.666667
vt 0.833333 0.833333
vt 0.833333 0.166667
vt 0.083333 0.333333
vt 0.083333 0.666667
vt 0.916667 0.833333
vt 0.916667 0.166667
vt 0.916667 0.333333
vt 1.000000 0.333333
vt 1.000000 0.666667
vt 0.916667 0.666667
vt 1.000000 0.833333
vt 1.000000 0.166667
vt 0.000000 0.333333
vt 0.083333 0.833333
vt 0.083333 0.166667
vt 0.000000 0.166667
vt 0.000000 0.833333
vt 0.166667 0.666667
vt 0.000000 0.666667
vt 0.166667 0.833333
vt 0.166667 0.166667
vt 0.250000 0.833333
vt 0.250000 0.166667
vt 0.333333 0.333333
vt 0.333333 0.666667
vt 0.250000 0.666667
vt 0.333333 0.833333
vt 0.333333 0.166667
vt 0.416667 0.833333
vt 0.416667 0.166667
vt 0.416667 0.333333
vt 0.416667 0.666667
s 0
f 8/1/1 12/2/1 9/3/1 5/4/1
f 1/5/2 5/4/2 6/6/2 2/7/2
f 10/8/3 11/9/3 7/10/3 6/6/3
f 3/11/4 7/10/4 8/1/4 4/12/4
f 36/13/5 40/14/5 62/14/5 56/13/5
f 5/4/2 9/3/2 10/8/2 6/6/2
f 14/15/6 15/16/6 11/9/6 10/8/6
f 7/10/4 11/9/4 12/2/4 8/1/4
f 16/17/7 20/18/7 17/19/7 13/20/7
f 9/3/2 13/20/2 14/15/2 10/8/2
f 18/21/8 19/22/8 15/16/8 14/15/8
f 11/9/4 15/16/4 16/17/4 12/2/4
f 32/23/9 29/24/9 51/24/9 52/23/9
f 13/20/2 17/19/2 18/21/2 14/15/2
f 22/25/10 23/26/10 19/22/10 18/21/10
f 15/16/4 19/22/4 20/18/4 16/17/4
f 24/27/11 28/28/11 25/29/11 21/30/11
f 17/19/2 21/30/2 22/25/2 18/21/2
f 26/31/12 27/32/12 23/26/12 22/25/12
f 19/22/4 23/26/4 24/27/4 20/18/4
f 28/33/13 32/23/13 52/23/13 68/33/13
f 21/30/2 25/29/2 26/31/2 22/25/2
f 30/34/14 31/35/14 27/36/14 26/37/14
f 23/26/4 27/32/4 28/28/4 24/27/4
f 32/23/3 36/13/3 33/38/3 29/24/3
f 25/39/2 29/24/2 30/34/2 26/37/2
f 34/40/1 35/41/1 31/35/1 30/34/1
f 27/36/4 31/35/4 32/23/4 28/33/4
f 16/17/15 13/20/15 63/20/15 64/17/15
f 29/24/2 33/38/2 34/40/2 30/34/2
f 38/42/16 39/43/16 35/41/16 34/40/16
f 31/35/4 35/41/4 36/13/4 32/23/4
f 40/14/8 44/44/8 41/45/8 37/46/8
f 33/38/2 37/46/2 38/42/2 34/40/2
f 42/47/7 43/48/7 39/43/7 38/42/7
f 35/41/4 39/43/4 40/14/4 36/13/4
f 41/45/17 44/44/17 71/44/17 69/45/17
f 37/46/2 41/45/2 42/47/2 38/42/2
f 46/49/18 47/50/18 43/48/18 42/47/18
f 39/43/4 43/48/4 44/44/4 40/14/4
f 48/51/12 4/12/12 1/5/12 45/52/12
f 41/45/2 45/52/2 46/49/2 42/47/2
f 40/14/19 37/46/19 61/46/19 62/14/19
f 43/48/4 47/50/4 48/51/4 44/44/4
f 45/52/2 1/5/2 2/7/2 46/49/2
f 6/6/20 7/10/20 3/11/20 2/7/20
f 47/50/4 3/11/4 4/12/4 48/51/4
f 2/7/11 3/11/11 47/50/11 46/49/11
f 60/2/16 64/17/16 63/20/16 59/3/16
f 57/18/18 58/27/18 66/30/18 65/19/18
f 68/33/20 52/23/20 51/24/20 67/39/20
f 56/13/6 62/14/6 61/46/6 55/38/6
f 71/44/10 72/51/10 70/52/10 69/45/10
f 50/12/14 54/1/14 53/4/14 49/5/14
f 25/29/21 28/28/21 68/28/21 67/29/21
f 8/1/22 5/4/22 53/4/22 54/1/22
f 44/44/23 48/51/23 72/51/23 71/44/23
f 17/19/24 20/18/24 57/18/24 65/19/24
f 5/4/25 1/5/25 49/5/25 53/4/25
f 33/38/26 36/13/26 56/13/26 55/38/26
f 13/20/27 9/3/27 59/3/27 63/20/27
f 21/30/28 17/19/28 65/19/28 66/30/28
f 48/51/29 45/52/29 70/52/29 72/51/29
f 29/24/30 25/39/30 67/39/30 51/24/30
f 1/5/31 4/12/31 50/12/31 49/5/31
f 37/46/32 33/38/32 55/38/32 61/46/32
f 20/18/33 24/27/33 58/27/33 57/18/33
f 45/52/34 41/45/34 69/45/34 70/52/34
f 4/12/35 8/1/35 54/1/35 50/12/35
f 9/3/36 12/2/36 60/2/36 59/3/36
f 24/27/37 21/30/37 66/30/37 58/27/37
f 12/2/38 16/17/38 64/17/38 60/2/38
