# Blender 3.6.4
# www.blender.org
mtllib hazard_scaffolding_new.mtl
o Cube.010
v -1.000000 -0.050000 0.500000
v -1.000000 0.050000 0.500000
v -1.000000 -0.050000 -0.500000
v -1.000000 0.050000 -0.500000
v 1.000000 -0.050000 0.500000
v 1.000000 0.050000 0.500000
v 1.000000 -0.050000 -0.500000
v 1.000000 0.050000 -0.500000
v -1.050000 0.250000 0.550000
v -0.950000 0.250000 0.550000
v -1.050000 0.250000 0.450000
v -0.950000 0.250000 0.450000
v -1.050000 -1.750000 0.550000
v -0.950000 -1.750000 0.550000
v -1.050000 -1.750000 0.450000
v -0.950000 -1.750000 0.450000
v -1.050000 0.250000 -0.450000
v -0.950000 0.250000 -0.450000
v -1.050000 0.250000 -0.550000
v -0.950000 0.250000 -0.550000
v -1.050000 -1.750000 -0.450000
v -0.950000 -1.750000 -0.450000
v -1.050000 -1.750000 -0.550000
v -0.950000 -1.750000 -0.550000
v 0.950000 0.250000 -0.450000
v 1.050000 0.250000 -0.450000
v 0.950000 0.250000 -0.550000
v 1.050000 0.250000 -0.550000
v 0.950000 -1.750000 -0.450000
v 1.050000 -1.750000 -0.450000
v 0.950000 -1.750000 -0.550000
v 1.050000 -1.750000 -0.550000
v 0.950000 0.250000 0.550000
v 1.050000 0.250000 0.550000
v 0.950000 0.250000 0.450000
v 1.050000 0.250000 0.450000
v 0.950000 -1.750000 0.550000
v 1.050000 -1.750000 0.550000
v 0.950000 -1.750000 0.450000
v 1.050000 -1.750000 0.450000
v 0.982532 -0.081699 0.550000
v 1.032532 -0.168301 0.550000
v 0.982532 -0.081699 0.450000
v 1.032532 -0.168301 0.450000
v -1.032532 -1.331699 0.550000
v -0.982532 -1.418301 0.550000
v -1.032532 -1.331699 0.450000
v -0.982532 -1.418301 0.450000
v -1.032531 -0.168301 0.550000
v -0.982532 -0.081699 0.550000
v -1.032531 -0.168301 0.450000
v -0.982532 -0.081699 0.450000
v 0.982532 -1.418301 0.550000
v 1.032532 -1.331699 0.550000
v 0.982532 -1.418301 0.450000
v 1.032532 -1.331699 0.450000
v 0.982532 -0.081699 -0.450000
v 1.032532 -0.168301 -0.450000
v 0.982532 -0.081699 -0.550000
v 1.032532 -0.168301 -0.550000
v -1.032532 -1.331699 -0.450000
v -0.982532 -1.418301 -0.450000
v -1.032532 -1.331699 -0.550000
v -0.982532 -1.418301 -0.550000
v -1.032531 -0.168301 -0.450000
v -0.982532 -0.081699 -0.450000
v -1.032531 -0.168301 -0.550000
v -0.982532 -0.081699 -0.550000
v 0.982532 -1.418301 -0.450000
v 1.032532 -1.331699 -0.450000
v 0.982532 -1.418301 -0.550000
v 1.032532 -1.331699 -0.550000
vn -1.0000 -0.0000 -0.0000
vn -0.0000 -0.0000 -1.0000
vn 1.0000 -0.0000 -0.0000
vn -0.0000 -0.0000 1.0000
vn -0.0000 -1.0000 -0.0000
vn -0.0000 1.0000 -0.0000
vn 0.8660 0.5000 -0.0000
vn -0.8660 -0.5000 -0.0000
vn -0.5271 0.8498 -0.0000
vn 0.5271 -0.8498 -0.0000
vn -0.8660 0.5000 -0.0000
vn 0.8660 -0.5000 -0.0000
vn -0.5271 -0.8498 -0.0000
vn 0.5271 0.8498 -0.0000
vt 0.375000 0.000000
vt 0.625000 0.000000
vt 0.625000 0.250000
vt 0.375000 0.250000
vt 0.625000 0.500000
vt 0.375000 0.500000
vt 0.625000 0.750000
vt 0.375000 0.750000
vt 0.625000 1.000000
vt 0.375000 1.000000
vt 0.125000 0.500000
vt 0.125000 0.750000
vt 0.875000 0.500000
vt 0.875000 0.750000
s 0
f 1/1/1 2/2/1 4/3/1 3/4/1
f 3/4/2 4/3/2 8/5/2 7/6/2
f 7/6/3 8/5/3 6/7/3 5/8/3
f 5/8/4 6/7/4 2/9/4 1/10/4
f 3/11/5 7/6/5 5/8/5 1/12/5
f 8/5/6 4/13/6 2/14/6 6/7/6
f 9/1/6 10/2/6 12/3/6 11/4/6
f 11/4/2 12/3/2 16/5/2 15/6/2
f 15/6/5 16/5/5 14/7/5 13/8/5
f 13/8/4 14/7/4 10/9/4 9/10/4
f 11/11/1 15/6/1 13/8/1 9/12/1
f 16/5/3 12/13/3 10/14/3 14/7/3
f 17/1/6 18/2/6 20/3/6 19/4/6
f 19/4/2 20/3/2 24/5/2 23/6/2
f 23/6/5 24/5/5 22/7/5 21/8/5
f 21/8/4 22/7/4 18/9/4 17/10/4
f 19/11/1 23/6/1 21/8/1 17/12/1
f 24/5/3 20/13/3 18/14/3 22/7/3
f 25/1/6 26/2/6 28/3/6 27/4/6
f 27/4/2 28/3/2 32/5/2 31/6/2
f 31/6/5 32/5/5 30/7/5 29/8/5
f 29/8/4 30/7/4 26/9/4 25/10/4
f 27/11/1 31/6/1 29/8/1 25/12/1
f 32/5/3 28/13/3 26/14/3 30/7/3
f 33/1/6 34/2/6 36/3/6 35/4/6
f 35/4/2 36/3/2 40/5/2 39/6/2
f 39/6/5 40/5/5 38/7/5 37/8/5
f 37/8/4 38/7/4 34/9/4 33/10/4
f 35/11/1 39/6/1 37/8/1 33/12/1
f 40/5/3 36/13/3 34/14/3 38/7/3
f 41/1/7 42/2/7 44/3/7 43/4/7
f 43/4/2 44/3/2 48/5/2 47/6/2
f 47/6/8 48/5/8 46/7/8 45/8/8
f 45/8/4 46/7/4 42/9/4 41/10/4
f 43/11/9 47/6/9 45/8/9 41/12/9
f 48/5/10 44/13/10 42/14/10 46/7/10
f 49/1/11 50/2/11 52/3/11 51/4/11
f 51/4/2 52/3/2 56/5/2 55/6/2
f 55/6/12 56/5/12 54/7/12 53/8/12
f 53/8/4 54/7/4 50/9/4 49/10/4
f 51/11/13 55/6/13 53/8/13 49/12/13
f 56/5/14 52/13/14 50/14/14 54/7/14
f 57/1/7 58/2/7 60/3/7 59/4/7
f 59/4/2 60/3/2 64/5/2 63/6/2
f 63/6/8 64/5/8 62/7/8 61/8/8
f 61/8/4 62/7/4 58/9/4 57/10/4
f 59/11/9 63/6/9 61/8/9 57/12/9
f 64/5/10 60/13/10 58/14/10 62/7/10
f 65/1/11 66/2/11 68/3/11 67/4/11
f 67/4/2 68/3/2 72/5/2 71/6/2
f 71/6/12 72/5/12 70/7/12 69/8/12
f 69/8/4 70/7/4 66/9/4 65/10/4
f 67/11/13 71/6/13 69/8/13 65/12/13
f 72/5/14 68/13/14 66/14/14 70/7/14
