# Blender 3.6.4
# www.blender.org
mtllib hazard_wheel_front.mtl
o Cube.008
v 3.656087 1.982813 -0.018750
v 3.812337 2.100000 -0.018750
v 3.656087 2.185938 -0.018750
v 3.499837 2.100000 -0.018750
v 3.656087 2.082247 -0.389844
v 3.812337 2.183734 -0.331250
v 3.656087 2.258158 -0.288281
v 3.499837 2.183734 -0.331250
v 3.656087 2.353906 -0.661503
v 3.812337 2.412500 -0.560016
v 3.656087 2.455469 -0.485592
v 3.499837 2.412500 -0.560016
v 3.656087 2.725000 -0.760937
v 3.812337 2.725000 -0.643750
v 3.656087 2.725000 -0.557812
v 3.499837 2.725000 -0.643750
v 3.656087 3.096094 -0.661503
v 3.812337 3.037500 -0.560016
v 3.656087 2.994531 -0.485592
v 3.499837 3.037500 -0.560016
v 3.656087 3.367753 -0.389844
v 3.812337 3.266266 -0.331250
v 3.656087 3.191842 -0.288281
v 3.499837 3.266266 -0.331250
v 3.656087 3.467188 -0.018750
v 3.812337 3.350000 -0.018750
v 3.656087 3.264063 -0.018750
v 3.499837 3.350000 -0.018750
v 3.656087 3.367753 0.352344
v 3.812337 3.266266 0.293750
v 3.656087 3.191842 0.250781
v 3.499837 3.266266 0.293750
v 3.656087 3.096094 0.624003
v 3.812337 3.037500 0.522516
v 3.656087 2.994531 0.448092
v 3.499837 3.037500 0.522516
v 3.656087 2.725000 0.723438
v 3.812337 2.725000 0.606250
v 3.656087 2.725000 0.520312
v 3.499837 2.725000 0.606250
v 3.656087 2.353906 0.624003
v 3.812337 2.412500 0.522516
v 3.656087 2.455469 0.448092
v 3.499837 2.412500 0.522516
v 3.656087 2.082247 0.352344
v 3.812337 2.183734 0.293750
v 3.656087 2.258158 0.250781
v 3.499837 2.183734 0.293750
v 3.632346 2.607253 -0.030727
v 3.656087 2.618561 -0.024198
v 3.679828 2.607253 -0.030727
v 3.632346 2.594530 0.016756
v 3.656087 2.607588 0.016756
v 3.679828 2.594530 0.016756
v 3.679828 2.736976 -0.065486
v 3.656087 2.730448 -0.054178
v 3.632346 2.736976 -0.065486
v 3.679828 2.771736 -0.030727
v 3.656087 2.760428 -0.024198
v 3.632346 2.771736 -0.030727
v 3.656087 2.730448 0.087689
v 3.632346 2.736976 0.098997
v 3.656087 2.689494 0.098662
v 3.632346 2.689494 0.111720
v 3.679828 2.736976 0.098997
v 3.679828 2.689494 0.111720
v 4.179829 2.594530 0.016756
v 4.179829 2.607253 -0.030727
v 4.179829 2.736976 0.098997
v 4.179829 2.689494 0.111720
v 4.179829 2.736976 -0.065486
v 4.179829 2.771736 -0.030727
vn 0.5867 -0.7822 -0.2096
vn 0.0141 0.5220 0.8528
vn -0.9733 -0.1622 0.1622
vn -0.5867 -0.7822 -0.2096
vn 0.5867 -0.5726 -0.5726
vn 0.4692 0.6245 0.6245
vn -0.4692 0.6245 0.6245
vn -0.5867 -0.5726 -0.5726
vn 0.5867 -0.2096 -0.7822
vn 0.4692 0.2286 0.8530
vn -0.4692 0.2286 0.8530
vn -0.5867 -0.2096 -0.7822
vn 0.5867 0.2096 -0.7822
vn 0.4692 -0.2286 0.8530
vn -0.4692 -0.2286 0.8530
vn -0.5867 0.2096 -0.7822
vn 0.5867 0.5726 -0.5726
vn -0.0141 0.5220 0.8528
vn -0.0596 0.5900 -0.8052
vn -0.5867 0.5726 -0.5726
vn 0.5867 0.7822 -0.2096
vn 0.4692 -0.8530 0.2286
vn -0.4692 -0.8530 0.2286
vn -0.5867 0.7822 -0.2096
vn 0.5867 0.7822 0.2096
vn 0.4692 -0.8530 -0.2286
vn -0.4692 -0.8530 -0.2286
vn -0.5867 0.7822 0.2096
vn 0.5867 0.5726 0.5726
vn 0.4692 -0.6245 -0.6245
vn -0.4692 -0.6245 -0.6245
vn -0.5867 0.5726 0.5726
vn 0.5867 0.2096 0.7822
vn 0.9649 -0.0680 -0.2537
vn 0.0596 0.5900 -0.8052
vn -0.5867 0.2096 0.7822
vn 0.5867 -0.2096 0.7822
vn 0.4692 0.2286 -0.8530
vn -0.4692 0.2286 -0.8530
vn -0.5867 -0.2096 0.7822
vn 0.5867 -0.5726 0.5726
vn 0.4692 0.6245 -0.6245
vn -0.4692 0.6245 -0.6245
vn -0.5867 -0.5726 0.5726
vn 0.5867 -0.7822 0.2096
vn 0.4692 0.8530 -0.2286
vn -0.4692 0.8530 -0.2286
vn -0.5867 -0.7822 0.2096
vn -0.0461 -0.9954 0.0838
vn -0.0461 -0.0838 0.9954
vn 0.0461 -0.9954 0.0838
vn 0.0461 -0.0838 0.9954
vn 0.9733 -0.1622 0.1622
vn -0.0141 -0.8528 -0.5220
vn -0.9649 -0.0680 -0.2537
vn 0.0141 -0.8528 -0.5220
vn 0.9649 0.2537 0.0680
vn 0.0596 0.8052 -0.5900
vn -0.0596 0.8052 -0.5900
vn -0.9649 0.2537 0.0680
vn -0.0000 -0.7071 0.7071
vn -0.0000 0.9659 0.2588
vn -0.0000 -0.2588 -0.9659
vn 0.3625 0.2412 0.9002
vn -0.3625 0.2412 0.9002
vn 0.3625 0.6590 -0.6590
vn -0.3625 0.6590 -0.6590
vn 0.3625 -0.9002 -0.2412
vn -0.3625 -0.9002 -0.2412
vn 1.0000 -0.0000 -0.0000
vn -0.0000 -0.9659 -0.2588
vn -1.0000 -0.0000 -0.0000
vn -0.0000 0.7071 -0.7071
vn -0.0000 0.2588 0.9659
vt 0.500000 0.500000
vt 0.583333 0.500000
vt 0.583333 0.750000
vt 0.500000 0.750000
vt 0.916667 0.000000
vt 0.916667 0.250000
vt 0.833333 0.250000
vt 0.500000 0.250000
vt 0.583333 0.250000
vt 0.666667 0.500000
vt 0.666667 0.750000
vt 0.666667 1.000000
vt 0.583333 1.000000
vt 0.583333 0.000000
vt 0.666667 0.000000
vt 0.666667 0.250000
vt 0.750000 0.500000
vt 0.750000 0.750000
vt 0.750000 1.000000
vt 0.750000 0.000000
vt 0.750000 0.250000
vt 0.833333 0.500000
vt 0.833333 0.750000
vt 0.833333 1.000000
vt 0.833333 0.000000
vt 0.916667 0.500000
vt 0.916667 0.750000
vt 0.916667 1.000000
vt 1.000000 0.500000
vt 1.000000 0.750000
vt 1.000000 1.000000
vt 1.000000 0.000000
vt 1.000000 0.250000
vt 0.000000 0.500000
vt 0.083333 0.500000
vt 0.083333 0.750000
vt 0.000000 0.750000
vt 0.083333 1.000000
vt 0.000000 1.000000
vt 0.000000 0.000000
vt 0.083333 0.000000
vt 0.083333 0.250000
vt 0.000000 0.250000
vt 0.166667 0.500000
vt 0.166667 0.750000
vt 0.166667 1.000000
vt 0.166667 0.000000
vt 0.166667 0.250000
vt 0.250000 0.500000
vt 0.250000 0.750000
vt 0.250000 0.250000
vt 0.333333 0.500000
vt 0.333333 0.750000
vt 0.333333 1.000000
vt 0.250000 1.000000
vt 0.250000 0.000000
vt 0.333333 0.000000
vt 0.333333 0.250000
vt 0.416667 0.500000
vt 0.416667 0.750000
vt 0.416667 1.000000
vt 0.416667 0.000000
vt 0.416667 0.250000
vt 0.500000 1.000000
vt 0.500000 0.000000
vt 0.000000 0.000000
s 0
usemtl Material.013
f 64/66/70 52/66/70 49/66/70 57/66/70 60/66/70 62/66/70
f 67/66/72 70/66/72 69/66/72 72/66/72 71/66/72 68/66/72
usemtl Material.009
f 1/1/1 5/2/1 6/3/1 2/4/1
f 23/5/2 24/6/2 60/6/2 59/5/2
f 24/6/3 20/7/3 57/7/3 60/6/3
f 4/8/4 8/9/4 5/2/4 1/1/4
f 5/2/5 9/10/5 10/11/5 6/3/5
f 6/3/6 10/11/6 11/12/6 7/13/6
f 7/14/7 11/15/7 12/16/7 8/9/7
f 8/9/8 12/16/8 9/10/8 5/2/8
f 9/10/9 13/17/9 14/18/9 10/11/9
f 10/11/10 14/18/10 15/19/10 11/12/10
f 11/15/11 15/20/11 16/21/11 12/16/11
f 12/16/12 16/21/12 13/17/12 9/10/12
f 13/17/13 17/22/13 18/23/13 14/18/13
f 14/18/14 18/23/14 19/24/14 15/19/14
f 15/20/15 19/25/15 20/7/15 16/21/15
f 16/21/16 20/7/16 17/22/16 13/17/16
f 17/22/17 21/26/17 22/27/17 18/23/17
f 22/27/18 23/28/18 59/28/18 58/27/18
f 7/14/19 8/9/19 49/9/19 50/14/19
f 20/7/20 24/6/20 21/26/20 17/22/20
f 21/26/21 25/29/21 26/30/21 22/27/21
f 22/27/22 26/30/22 27/31/22 23/28/22
f 23/5/23 27/32/23 28/33/23 24/6/23
f 24/6/24 28/33/24 25/29/24 21/26/24
f 25/34/25 29/35/25 30/36/25 26/37/25
f 26/37/26 30/36/26 31/38/26 27/39/26
f 27/40/27 31/41/27 32/42/27 28/43/27
f 28/43/28 32/42/28 29/35/28 25/34/28
f 29/35/29 33/44/29 34/45/29 30/36/29
f 30/36/30 34/45/30 35/46/30 31/38/30
f 31/41/31 35/47/31 36/48/31 32/42/31
f 32/42/32 36/48/32 33/44/32 29/35/32
f 33/44/33 37/49/33 38/50/33 34/45/33
f 34/45/34 38/50/34 66/50/34 65/45/34
f 6/3/35 7/13/35 50/13/35 51/3/35
f 36/48/36 40/51/36 37/49/36 33/44/36
f 37/49/37 41/52/37 42/53/37 38/50/37
f 38/50/38 42/53/38 43/54/38 39/55/38
f 39/56/39 43/57/39 44/58/39 40/51/39
f 40/51/40 44/58/40 41/52/40 37/49/40
f 41/52/41 45/59/41 46/60/41 42/53/41
f 42/53/42 46/60/42 47/61/42 43/54/42
f 43/57/43 47/62/43 48/63/43 44/58/43
f 44/58/44 48/63/44 45/59/44 41/52/44
f 45/59/45 1/1/45 2/4/45 46/60/45
f 46/60/46 2/4/46 3/64/46 47/61/46
f 47/62/47 3/65/47 4/8/47 48/63/47
f 48/63/48 4/8/48 1/1/48 45/59/48
f 38/50/49 39/55/49 63/55/49 66/50/49
f 3/64/50 2/4/50 54/4/50 53/64/50
f 39/56/51 40/51/51 64/51/51 63/56/51
f 4/8/52 3/65/52 53/65/52 52/8/52
f 18/23/53 22/27/53 58/27/53 55/23/53
f 19/24/54 18/23/54 55/23/54 56/24/54
f 40/51/55 36/48/55 62/48/55 64/51/55
f 20/7/56 19/25/56 56/25/56 57/7/56
f 2/4/57 6/3/57 51/3/57 54/4/57
f 35/46/58 34/45/58 65/45/58 61/46/58
f 36/48/59 35/47/59 61/47/59 62/48/59
f 8/9/60 4/8/60 52/8/60 49/9/60
f 60/6/61 57/7/61 56/25/61 55/23/61 58/27/61 59/28/61
f 51/3/62 50/13/62 49/9/62 52/8/62 53/65/62 54/4/62
f 64/51/63 62/48/63 61/47/63 65/45/63 66/50/63 63/55/63
f 55/23/64 56/24/64 50/24/64 51/23/64
f 56/25/65 57/7/65 49/7/65 50/25/65
f 63/55/66 66/50/66 54/50/66 53/55/66
f 64/51/67 63/56/67 53/56/67 52/51/67
f 59/28/68 58/27/68 65/27/68 61/28/68
f 60/6/69 59/5/69 61/5/69 62/6/69
f 65/27/71 58/27/71 72/27/71 69/27/71
f 54/50/73 66/50/73 70/50/73 67/50/73
f 58/27/61 55/23/61 71/23/61 72/27/61
f 51/3/62 54/4/62 67/4/62 68/3/62
f 66/50/63 65/45/63 69/45/63 70/50/63
f 55/23/74 51/23/74 68/23/74 71/23/74
